<?xml version="1.0" encoding="UTF-8"?>
<!DOCTYPE svg PUBLIC "-//W3C//DTD SVG 1.1//EN" "http://www.w3.org/Graphics/SVG/1.1/DTD/svg11.dtd">
<!-- Creator: CorelDRAW X7 -->
<svg xmlns="http://www.w3.org/2000/svg" xml:space="preserve" width="14.8cm" height="10.5cm" version="1.1" style="shape-rendering:geometricPrecision; text-rendering:geometricPrecision; image-rendering:optimizeQuality; fill-rule:evenodd; clip-rule:evenodd"
viewBox="0 0 14800 10500"
 xmlns:xlink="http://www.w3.org/1999/xlink">
 <defs>
  <style type="text/css">
   <![CDATA[
    .str0 {stroke:#FEFEFE;stroke-width:20}
    .fil0 {fill:#FEFEFE}
   ]]>
  </style>
 </defs>
 <g id="Layer_x0020_1">
  <metadata id="CorelCorpID_0Corel-Layer"/>
  <g id="_303356648">
   <path class="fil0 str0" d="M576 5744l-112 476c263,1 1571,19 1718,-9 256,-50 332,-236 388,-461 56,-229 159,-492 17,-696 -152,-217 -343,-191 -659,-191 -601,0 -661,53 -593,-217 60,-239 19,-185 665,-185 288,0 576,0 864,0 50,-31 60,-167 75,-228 20,-76 47,-166 53,-244 -258,0 -1562,-17 -1701,7 -242,42 -340,229 -401,465 -63,248 -164,481 -6,697 158,215 344,178 669,178 653,0 631,-44 571,228 -43,194 -53,178 -254,178 -360,-1 -988,-16 -1294,2z"/>
   <path class="fil0 str0" d="M9854 3059c85,-1 259,-47 356,-64 705,-120 2030,-156 2151,737 63,470 -277,989 -478,1223 -1080,1262 -2858,2197 -4512,2355 -272,26 -554,31 -821,-11 -411,-65 -385,-122 -638,-223 35,81 191,172 272,213 355,179 835,195 1229,164 548,-43 1071,-187 1545,-354 1292,-456 2528,-1222 3386,-2302 730,-920 673,-1977 -883,-2005 -607,-10 -1079,125 -1607,267z"/>
   <path class="fil0 str0" d="M7600 4990c235,0 471,2 707,2 231,0 447,4 445,261 -3,236 -123,373 -246,458 -118,82 -444,123 -593,81 -23,-98 118,-450 126,-590l-496 -2 -400 1657 486 -1 166 -632c174,-26 384,10 571,-18 978,-145 1103,-1439 461,-1616 -133,-37 -986,-58 -1129,-31l-98 431z"/>
   <path class="fil0 str0" d="M5248 3988l-151 562c-395,28 -669,-46 -985,165 -574,383 -605,1312 -48,1468 151,43 940,52 1118,34l112 -436c-217,-1 -431,-1 -645,-1 -208,0 -419,29 -491,-137 -69,-161 21,-387 104,-476 189,-204 403,-213 718,-189 0,130 -106,439 -136,593l497 -1 396 -1582 -489 0z"/>
   <path class="fil0 str0" d="M12512 5804l-108 416c221,1 1037,15 1192,-13 393,-70 523,-440 451,-748 -114,-489 -779,-167 -863,-346 -100,-213 293,-163 422,-163 201,0 404,4 604,-1l95 -392c-148,-22 -1044,-15 -1181,12 -371,74 -536,443 -437,724 154,435 788,166 866,345 93,215 -330,166 -422,166 -206,0 -413,0 -619,0z"/>
   <path class="fil0 str0" d="M7440 4551l-495 2c-97,284 -251,1075 -327,1242 -646,58 -531,-72 -445,-429 31,-131 189,-736 194,-815l-492 0c-65,181 -120,479 -168,679 -46,189 -161,513 -94,700 107,298 341,291 563,291 284,0 569,-2 852,-3l412 -1667z"/>
   <path class="fil0 str0" d="M9300 6221l490 -1c64,-152 230,-1053 303,-1154 80,-112 252,-73 413,-76l113 -438c-423,-3 -883,-85 -1030,457l-289 1212z"/>
   <path class="fil0 str0" d="M3645 4542l-479 0c-43,25 -8,-16 -34,43 -4,9 -12,45 -15,58 -112,496 -302,1135 -386,1578l512 -5 402 -1674z"/>
   <path class="fil0 str0" d="M10669 5884c87,-33 281,-209 405,-280 -23,-324 142,-547 400,-611 267,-67 177,66 355,-150 54,-65 163,-207 198,-286 -154,-19 -512,-7 -660,26 -779,176 -863,1068 -698,1301z"/>
   <path class="fil0 str0" d="M11035 6196c162,44 868,24 1090,25l321 -1342c-63,47 -257,302 -322,361 -60,54 -319,303 -342,348 -68,132 25,195 -133,193 -156,-1 -248,125 -433,264 -33,25 -65,48 -100,73 -65,45 -76,46 -81,78z"/>
   <polygon class="fil0 str0" points="3193,4341 3694,4342 3787,3988 3283,3987 "/>
   <path class="fil0 str0" d="M7509 4422c83,-50 169,-129 246,-188l767 -561c171,-117 349,-234 537,-342 139,-79 415,-249 563,-303 -325,28 -1158,543 -1450,758 -157,115 -346,276 -470,410l-193 226z"/>
   <path class="fil0 str0" d="M6928 4379c47,-24 1130,-983 2057,-1446 117,-59 695,-357 778,-364 -240,25 -867,312 -1119,440 -110,57 -225,139 -325,179 -56,-31 -84,-83 -129,-129l-380 -387c53,-119 -32,-297 -198,-244 -234,74 -127,367 65,339l281 655c-36,39 -542,404 -804,689 -77,85 -158,168 -226,268z"/>
   <path class="fil0 str0" d="M8159 4397l622 -448c74,-51 520,-342 670,-392 -293,29 -1061,534 -1292,840z"/>
  </g>
 </g>
</svg>
